<svg xmlns="http://www.w3.org/2000/svg" width="24" height="72" fill="none" viewBox="0 0 24 72">
    <path fill="#000D33" fill-opacity=".2" fill-rule="evenodd" d="M12 20c4.418 0 8-3.582 8-8s-3.582-8-8-8-8 3.582-8 8 3.582 8 8 8zm-4-5l1 1 3-3 3 3 1-1-3-3 3-3-1-1-3 3-3-3-1 1 3 3-3 3z" clip-rule="evenodd"/>
    <path fill="#F93" fill-rule="evenodd" d="M12 44c4.418 0 8-3.582 8-8s-3.582-8-8-8-8 3.582-8 8 3.582 8 8 8zm-4-5l1 1 3-3 3 3 1-1-3-3 3-3-1-1-3 3-3-3-1 1 3 3-3 3z" clip-rule="evenodd"/>
    <path fill="#FF6A00" fill-rule="evenodd" d="M12 68c4.418 0 8-3.582 8-8s-3.582-8-8-8-8 3.582-8 8 3.582 8 8 8zm-4-5l1 1 3-3 3 3 1-1-3-3 3-3-1-1-3 3-3-3-1 1 3 3-3 3z" clip-rule="evenodd"/>
</svg>
